# xmcd
#
# Track frame offsets:
#	150
#	19647
#	39424
#	55706
#	87246
#	107007
#	127751
#	157155
#	180887
#	199304
#	221065
#	244639
#
# Disc length: 3656 seconds
#
# Revision: 5
# Processed by: cddbd v1.5.2PL0 Copyright (c) Steve Scherf et al.
# Submitted via: EZCDAudioConverter 7.1.7.1
#
DISCID=950e460c
DTITLE=周杰伦 - 无与伦比演唱会Live CD2
DYEAR=2004
DGENRE=
TTITLE0=搁浅
TTITLE1=借口
TTITLE2=瓦解
TTITLE3=双刀＋双截棍＋龙拳
TTITLE4=困兽之斗
TTITLE5=倒带
TTITLE6=简单爱
TTITLE7=七里香
TTITLE8=外婆
TTITLE9=断了的弦
TTITLE10=东风破
TTITLE11=轨迹
EXTD=
EXTT0=
EXTT1=
EXTT2=
EXTT3=
EXTT4=
EXTT5=
EXTT6=
EXTT7=
EXTT8=
EXTT9=
EXTT10=
EXTT11=
PLAYORDER=
